# xmcd
#
# Track frame offsets:
#	150
#	14841
#	31418
#	53454
#	72184
#	90050
#	105742
#	124376
#	139803
#	157011
#	171915
#	189425
#	212830
#
# Disc length: 3084 seconds
#
# Revision: 1
# Processed by: cddbd v1.5.2PL0 Copyright (c) Steve Scherf et al.
# Submitted via: audiograbber 1.83.01
#
DISCID=b20c0a0d
DTITLE=Zezé Di Camargo and Luciano - Diferente
DYEAR=2006
DGENRE=Country
TTITLE0=Amor Que Fica - Participação Ivete Sangalo
TTITLE1=Diz Pro Meu Olhar
TTITLE2=Foi Só Engano
TTITLE3=Minha História - Participação Chico Buarque
TTITLE4=A Saudade é Uma Pedra
TTITLE5=Tempo Perdido
TTITLE6=Nunca Mais Ficar Sozinho
TTITLE7=Tô Com A Maior Moral
TTITLE8=Que Seja Bem Vinda
TTITLE9=Essa Noite
TTITLE10=Olha Eu Aí
TTITLE11=Hey Jude
TTITLE12=How Can I Go On - Participação Silvinha Araujo
EXTD=
EXTT0=
EXTT1=
EXTT2=
EXTT3=
EXTT4=
EXTT5=
EXTT6=
EXTT7=
EXTT8=
EXTT9=
EXTT10=
EXTT11=
EXTT12=
PLAYORDER=
